<svg width="50" height="50" viewBox="0 0 50 50" fill="none" xmlns="http://www.w3.org/2000/svg">
<path d="M35.6756 49.0925C32.2317 49.0925 28.7873 47.7814 26.1651 45.1596L3.93297 22.9275C-1.31099 17.6835 -1.31099 9.15047 3.93297 3.90651L7.11453 0.724957C7.58204 0.257445 8.2036 0 8.86471 0C9.5254 0 10.1474 0.257445 10.6149 0.724957L19.8276 9.93762C20.2951 10.4051 20.5525 11.0267 20.5525 11.6878C20.5525 12.3489 20.2951 12.9705 19.8276 13.438L15.8609 17.4046C14.86 18.4056 14.86 20.0346 15.8609 21.0356L28.057 33.2317C29.0579 34.233 30.687 34.233 31.6879 33.2317L35.6546 29.265C36.6197 28.3003 38.1894 28.2999 39.155 29.265L48.3676 38.4777C49.3323 39.4428 49.3323 41.013 48.3676 41.9781L45.1861 45.1596C42.5639 47.7814 39.1195 49.0925 35.6756 49.0925ZM8.86471 1.98415C8.73908 1.98415 8.61304 2.03235 8.51748 2.12791L5.33592 5.30946C0.865106 9.77987 0.865106 17.0541 5.33592 21.5245L27.5681 43.7567C29.7335 45.9225 32.6131 47.1149 35.6756 47.1149C38.7381 47.1149 41.6177 45.9221 43.7831 43.7567L46.9647 40.5747C47.1562 40.3832 47.1562 40.0718 46.9647 39.8802L37.752 30.6676C37.5609 30.476 37.2491 30.476 37.0575 30.6676L33.0909 34.6342C31.3164 36.4091 28.4294 36.4091 26.6545 34.6342L14.4584 22.4381C12.6839 20.6636 12.6839 17.7762 14.4584 16.0017L18.425 12.035C18.6166 11.8439 18.6166 11.5321 18.425 11.3406L9.21235 2.12791C9.11638 2.03193 8.99034 1.98415 8.86471 1.98415Z" fill="#18DBCD"/>
<path d="M48.1006 21.2844C47.5528 21.2844 47.1087 20.8399 47.1087 20.2925C47.1087 10.1971 38.8953 1.98374 28.8 1.98374C28.2521 1.98374 27.8081 1.53971 27.8081 0.991875C27.8081 0.444042 28.2521 0 28.8 0C39.9894 0 49.0925 9.1031 49.0925 20.2925C49.0925 20.8403 48.6484 21.2844 48.1006 21.2844Z" fill="#18DBCD"/>
<path d="M41.2222 21.2844C40.6744 21.2844 40.2303 20.8399 40.2303 20.2925C40.2303 13.9895 35.103 8.86216 28.8 8.86216C28.2521 8.86216 27.8081 8.41811 27.8081 7.87028C27.8081 7.32245 28.2521 6.87842 28.8 6.87842C36.1966 6.87842 42.2141 12.8959 42.2141 20.2925C42.2141 20.8404 41.7696 21.2844 41.2222 21.2844Z" fill="#18DBCD"/>
<path d="M34.3437 21.2843C33.7959 21.2843 33.3518 20.8399 33.3518 20.2925C33.3518 17.7823 31.3096 15.7401 28.7995 15.7401C28.2516 15.7401 27.8076 15.296 27.8076 14.7482C27.8076 14.2004 28.2516 13.7563 28.7995 13.7563C32.4036 13.7563 35.3356 16.6883 35.3356 20.2925C35.3356 20.8403 34.8916 21.2843 34.3437 21.2843Z" fill="#18DBCD"/>
</svg>
