<svg width="42" height="57" viewBox="0 0 42 57" fill="none" xmlns="http://www.w3.org/2000/svg">
<path d="M20.8111 56.5381C17.5966 56.5381 16.0569 53.9583 15.8736 53.6292C15.5049 53.0151 5.45939 36.2633 2.54846 30.9361C0.881481 27.8843 0 24.4256 0 20.9338C0 9.4627 9.33255 0.0720834 20.8045 0C20.809 0 20.8132 0 20.8169 0C32.2884 0.0720834 41.6214 9.4627 41.6214 20.9338C41.6214 24.426 40.7399 27.8843 39.0725 30.9361C36.1624 36.2633 26.1177 53.0126 25.7474 53.6292C25.5657 53.9575 24.0252 56.5381 20.8111 56.5381ZM20.8111 1.98415C10.4286 2.05253 1.98375 10.5518 1.98375 20.9338C1.98375 24.0944 2.7812 27.224 4.29001 29.985C7.22071 35.3497 17.6019 52.6555 17.6106 52.6711C17.6497 52.7424 18.6655 54.5539 20.8115 54.5539C22.9571 54.5539 23.9725 52.7424 24.0145 52.6649C24.0211 52.6538 34.4015 35.3497 37.3322 29.9846C38.8406 27.224 39.6381 24.094 39.6381 20.9334C39.6376 10.5518 31.1928 2.05212 20.8111 1.98415Z" fill="#18DBCD"/>
<path d="M20.811 31.1548C15.1069 31.1548 10.4668 26.5147 10.4668 20.811C10.4668 15.1074 15.1073 10.4673 20.811 10.4673C26.5146 10.4673 31.1547 15.1078 31.1547 20.811C31.1547 26.5147 26.5142 31.1548 20.811 31.1548ZM20.811 12.4506C16.2009 12.4506 12.4505 16.201 12.4505 20.8106C12.4505 25.4203 16.2005 29.1711 20.811 29.1711C25.4206 29.1711 29.171 25.4207 29.171 20.8106C29.171 16.2006 25.4206 12.4506 20.811 12.4506Z" fill="#18DBCD"/>
</svg>
