<?xml version="1.0" encoding="utf-8"?>
<!-- Generator: Adobe Illustrator 22.0.1, SVG Export Plug-In . SVG Version: 6.00 Build 0)  -->
<svg version="1.1" id="Layer_1" xmlns="http://www.w3.org/2000/svg" xmlns:xlink="http://www.w3.org/1999/xlink" x="0px" y="0px"
	 width="30px" height="30px" viewBox="0 0 30 30" style="enable-background:new 0 0 30 30;" xml:space="preserve">
<style type="text/css">
	.st0{fill:#FFFFFF;}
</style>
<g>
	<path class="st0" d="M29,2.1c1.3,1.3,1.3,3.4,0,4.7l-1.8,1.8l-5.8-5.8L23.2,1c1.3-1.3,3.4-1.3,4.7,0L29,2.1z M10.2,14l9.9-9.9
		l5.8,5.8L16,19.8c-0.4,0.4-0.8,0.6-1.3,0.8l-5.3,1.8c-0.6,0.2-1.1,0-1.5-0.4c-0.4-0.3-0.5-0.9-0.3-1.4l1.8-5.3
		C9.6,14.8,9.8,14.4,10.2,14L10.2,14z M11.4,3.4c1,0,1.9,0.9,1.9,1.9c0,1.1-0.8,1.9-1.9,1.9H5.7c-1,0-1.9,0.9-1.9,1.9v15.2
		c0,1,0.8,1.9,1.9,1.9h15.2c1,0,1.9-0.8,1.9-1.9v-5.7c0-1,0.8-1.9,1.9-1.9c1,0,1.9,0.9,1.9,1.9v5.7c0,3.1-2.5,5.7-5.7,5.7H5.7
		C2.5,30,0,27.5,0,24.3V9.1C0,6,2.5,3.4,5.7,3.4H11.4z"/>
</g>
</svg>
