<?xml version="1.0" encoding="utf-8"?>
<!-- Generator: Adobe Illustrator 22.0.1, SVG Export Plug-In . SVG Version: 6.00 Build 0)  -->
<svg version="1.1" id="Layer_1" xmlns="http://www.w3.org/2000/svg" xmlns:xlink="http://www.w3.org/1999/xlink" x="0px" y="0px"
	 width="30px" height="34.3px" viewBox="0 0 30 34.3" style="enable-background:new 0 0 30 34.3;" xml:space="preserve">
<style type="text/css">
	.st0{fill:#FFFFFF;}
</style>
<g>
	<path class="st0" d="M9.1,1.2C9.4,0.5,10.2,0,11,0H19c0.8,0,1.6,0.5,1.9,1.2l0.5,1h6.4c1.2,0,2.1,1,2.1,2.1s-1,2.1-2.1,2.1H2.1
		C1,6.4,0,5.5,0,4.3s1-2.1,2.1-2.1h6.4L9.1,1.2z M2.1,8.6h25.8V30c0,2.4-1.9,4.3-4.3,4.3H6.4c-2.3,0-4.3-1.9-4.3-4.3V8.6z M7.4,13.9
		v15C7.4,29.5,8,30,8.5,30c0.6,0,1.1-0.5,1.1-1.1v-15c0-0.6-0.4-1.1-1.1-1.1C8,12.9,7.4,13.3,7.4,13.9z M13.9,13.9v15
		c0,0.6,0.5,1.1,1.1,1.1c0.6,0,1.1-0.5,1.1-1.1v-15c0-0.6-0.5-1.1-1.1-1.1C14.4,12.9,13.9,13.3,13.9,13.9z M20.4,13.9v15
		c0,0.6,0.5,1.1,1.1,1.1s1.1-0.5,1.1-1.1v-15c0-0.6-0.5-1.1-1.1-1.1S20.4,13.3,20.4,13.9z"/>
</g>
</svg>
