<svg width="24" height="24" viewBox="0 0 24 24" fill="none" xmlns="http://www.w3.org/2000/svg">
<path d="M5.83999 4.70873C6.23538 4.41156 6.79683 4.49119 7.094 4.88656C7.39116 5.28196 7.31154 5.84338 6.91616 6.14057C4.96252 7.60889 3.79115 9.90272 3.79115 12.3929C3.79115 16.7095 7.29047 20.2088 11.6071 20.2088C15.9237 20.2088 19.423 16.7095 19.423 12.3929C19.423 9.90002 18.2491 7.60398 16.2919 6.13593C15.8962 5.83917 15.8161 5.27781 16.1128 4.88213C16.4096 4.48644 16.971 4.40629 17.3666 4.70307C19.7701 6.50587 21.2142 9.33021 21.2142 12.3929C21.2142 17.6988 16.9129 22 11.6071 22C6.30125 22 2 17.6988 2 12.3929C2 9.3335 3.4409 6.51189 5.83999 4.70873ZM12.5027 12.185C12.5027 12.6796 12.1017 13.0805 11.6071 13.0805C11.1125 13.0805 10.7115 12.6796 10.7115 12.185V2.89558C10.7115 2.40097 11.1125 2 11.6071 2C12.1017 2 12.5027 2.40097 12.5027 2.89558V12.185Z" fill="#858BA0" stroke="#858BA0" stroke-width="0.6"/>
</svg>
