<svg width="38" height="40" viewBox="0 0 38 40" fill="none" xmlns="http://www.w3.org/2000/svg">
<path d="M5.78064 21.6802H29.864" stroke="#18DBCD" stroke-width="2" stroke-miterlimit="10" stroke-linecap="round" stroke-linejoin="round"/>
<path d="M17.8224 9.40356V21.6801" stroke="#18DBCD" stroke-width="2" stroke-miterlimit="10" stroke-linecap="round" stroke-linejoin="round"/>
<path d="M5.78101 21.6805C5.78101 14.9115 11.1832 9.40393 17.8227 9.40393C24.4623 9.40393 29.8644 14.9422 29.8644 21.7113" stroke="#18DBCD" stroke-width="2" stroke-miterlimit="10" stroke-linecap="round" stroke-linejoin="round"/>
<path d="M17.8226 9.40356C17.8226 9.40356 11.3641 12.0189 11.3641 21.6801" stroke="#18DBCD" stroke-width="2" stroke-miterlimit="10" stroke-linecap="round" stroke-linejoin="round"/>
<path d="M17.8224 9.40356C17.8224 9.40356 24.2808 12.0189 24.2808 21.6801" stroke="#18DBCD" stroke-width="2" stroke-miterlimit="10" stroke-linecap="round" stroke-linejoin="round"/>
<path d="M17.8224 16.4187C11.1829 16.4187 9.46265 12.8496 9.46265 12.8496" stroke="#18DBCD" stroke-width="2" stroke-miterlimit="10" stroke-linecap="round" stroke-linejoin="round"/>
<path d="M26.1821 12.8496C26.1821 12.8496 24.4619 16.4187 17.8224 16.4187" stroke="#18DBCD" stroke-width="2" stroke-miterlimit="10" stroke-linecap="round" stroke-linejoin="round"/>
<path d="M17.8224 33.9567V21.6802" stroke="#18DBCD" stroke-width="2" stroke-miterlimit="10" stroke-linecap="round" stroke-linejoin="round"/>
<path d="M29.864 21.6802C29.864 28.4492 24.4619 33.9567 17.8224 33.9567C11.1828 33.9567 5.78064 28.4492 5.78064 21.6802" stroke="#18DBCD" stroke-width="2" stroke-miterlimit="10" stroke-linecap="round" stroke-linejoin="round"/>
<path d="M17.8224 33.9567C17.8224 33.9567 24.2808 31.3414 24.2808 21.6802" stroke="#18DBCD" stroke-width="2" stroke-miterlimit="10" stroke-linecap="round" stroke-linejoin="round"/>
<path d="M17.8226 33.9567C17.8226 33.9567 11.3641 31.3414 11.3641 21.6802" stroke="#18DBCD" stroke-width="2" stroke-miterlimit="10" stroke-linecap="round" stroke-linejoin="round"/>
<path d="M26.1821 30.5108C26.1821 30.5108 24.4619 26.9417 17.8224 26.9417" stroke="#18DBCD" stroke-width="2" stroke-miterlimit="10" stroke-linecap="round" stroke-linejoin="round"/>
<path d="M9.46265 30.5108C9.46265 30.5108 11.1829 26.9417 17.8224 26.9417" stroke="#18DBCD" stroke-width="2" stroke-miterlimit="10" stroke-linecap="round" stroke-linejoin="round"/>
<path d="M15.2269 2.72668C14.0801 5.37276 11.3337 5.49584 8.22522 7.52655C5.78066 9.1265 3.90952 11.5264 2.64198 14.2033C0.650118 18.4801 0.499249 23.6184 2.21949 28.0183" stroke="#18DBCD" stroke-width="2" stroke-miterlimit="10" stroke-linecap="round"/>
<path d="M13.0541 2.38833L15.8909 1.71143L16.5549 4.60365" stroke="#18DBCD" stroke-width="2" stroke-miterlimit="10" stroke-linecap="round"/>
<path d="M3.00439 33.4336C5.84128 33.1259 7.28989 35.4951 10.6097 37.2181C13.1749 38.5719 16.1929 39.0334 19.0902 38.7873C23.7378 38.4181 28.1743 35.9874 31.0111 32.2336" stroke="#18DBCD" stroke-width="2" stroke-miterlimit="10" stroke-linecap="round"/>
<path d="M3.78901 35.5258L1.79712 33.372L3.93991 31.3413" stroke="#18DBCD" stroke-width="2" stroke-miterlimit="10" stroke-linecap="round"/>
<path d="M35.2058 28.8799C33.5459 26.5415 34.8135 24.0493 34.6324 20.2956C34.4815 17.3418 33.395 14.4804 31.7352 12.0189C29.1095 8.11132 24.824 5.4037 20.2065 4.75757" stroke="#18DBCD" stroke-width="2" stroke-miterlimit="10" stroke-linecap="round"/>
<path d="M36.5943 27.157L35.7493 29.9877L32.9728 29.0954" stroke="#18DBCD" stroke-width="2" stroke-miterlimit="10" stroke-linecap="round"/>
</svg>
