<svg width="44" height="39" viewBox="0 0 44 39" fill="none" xmlns="http://www.w3.org/2000/svg">
<path d="M16.8664 4.82756C16.8664 4.07619 16.2768 3.4751 15.5398 3.4751C14.8028 3.4751 14.2133 4.07619 14.2133 4.82756C14.2133 5.57893 14.8028 6.18003 15.5398 6.18003C16.2768 6.2176 16.8664 5.6165 16.8664 4.82756Z" fill="#18DBCD"/>
<path d="M1.5 37.8503H41.4453" stroke="#18DBCD" stroke-width="2" stroke-miterlimit="10"/>
<path d="M5.88515 19.7422H1.5V34.0558H5.88515V19.7422Z" fill="#18DBCD"/>
<path d="M41.4454 12.3413H37.0603V34.056H41.4454V12.3413Z" fill="#18DBCD"/>
<path d="M17.7138 12.0781H13.3286V34.0558H17.7138V12.0781Z" fill="#18DBCD"/>
<path d="M18.3797 6.03229C19.0305 4.42064 18.2766 2.57624 16.6958 1.91272C15.115 1.24919 13.3059 2.01781 12.6551 3.62946C12.0043 5.2411 12.7582 7.0855 14.339 7.74902C15.9198 8.41254 17.7289 7.64393 18.3797 6.03229Z" stroke="#18DBCD" stroke-width="2" stroke-miterlimit="10"/>
<path d="M40.5978 5.12786C40.5978 4.37649 40.0082 3.77539 39.2712 3.77539C38.5342 3.77539 37.9446 4.37649 37.9446 5.12786C37.9446 5.87924 38.5342 6.48034 39.2712 6.48034C40.0082 6.48034 40.5978 5.87924 40.5978 5.12786Z" fill="#18DBCD"/>
<path d="M39.7938 8.23071C41.4815 7.95219 42.6281 6.33161 42.355 4.61103C42.0818 2.89046 40.4922 1.72145 38.8046 1.99997C37.1169 2.27849 35.9702 3.89907 36.2434 5.61965C36.5166 7.34022 38.1062 8.50923 39.7938 8.23071Z" stroke="#18DBCD" stroke-width="2" stroke-miterlimit="10"/>
<path d="M29.5797 18.9534H25.1946V34.056H29.5797V18.9534Z" fill="#18DBCD"/>
<path d="M27.4052 13.6562C28.4431 13.6562 29.2846 12.7984 29.2846 11.7402C29.2846 10.682 28.4431 9.82422 27.4052 9.82422C26.3673 9.82422 25.5259 10.682 25.5259 11.7402C25.5259 12.7984 26.3673 13.6562 27.4052 13.6562Z" stroke="#18DBCD" stroke-width="2" stroke-miterlimit="10"/>
<path d="M5.55352 12.529C5.55352 11.4771 4.70598 10.613 3.67418 10.613C2.64238 10.613 1.7948 11.4771 1.7948 12.529C1.7948 13.581 2.64238 14.445 3.67418 14.445C4.70598 14.445 5.55352 13.581 5.55352 12.529Z" stroke="#18DBCD" stroke-width="2" stroke-miterlimit="10"/>
<path d="M5.07422 11.2895L12.8495 6.44312" stroke="#18DBCD" stroke-width="2" stroke-miterlimit="10"/>
<path d="M18.4138 6.06714L25.5258 10.6505" stroke="#18DBCD" stroke-width="2" stroke-miterlimit="10"/>
<path d="M29.027 10.8009L36.4338 6.48047" stroke="#18DBCD" stroke-width="2" stroke-miterlimit="10"/>
</svg>
