<svg width="59" height="51" viewBox="0 0 59 51" fill="none" xmlns="http://www.w3.org/2000/svg">
<path d="M22.0911 5.54169C22.0911 4.53013 21.2818 3.72089 20.2703 3.72089C19.2587 3.72089 18.4495 4.53013 18.4495 5.54169C18.4495 6.55326 19.2587 7.36251 20.2703 7.36251C21.2818 7.41309 22.0911 6.60384 22.0911 5.54169Z" fill="#18DBCD"/>
<path d="M1 50H55.8269" stroke="#18DBCD" stroke-width="2" stroke-miterlimit="10"/>
<path d="M7.01883 25.6213H1V44.8917H7.01883V25.6213Z" fill="#18DBCD"/>
<path d="M55.8269 15.6575H49.8081V44.8917H55.8269V15.6575Z" fill="#18DBCD"/>
<path d="M23.2544 15.3032H17.2356V44.8915H23.2544V15.3032Z" fill="#18DBCD"/>
<path d="M24.1683 7.16359C25.0616 4.99384 24.0268 2.51075 21.8571 1.61745C19.6874 0.724162 17.2043 1.75894 16.311 3.92868C15.4178 6.09843 16.4525 8.58152 18.6223 9.47481C20.792 10.3681 23.2751 9.33333 24.1683 7.16359Z" stroke="#18DBCD" stroke-width="2" stroke-miterlimit="10"/>
<path d="M54.6636 5.94625C54.6636 4.93468 53.8543 4.12543 52.8428 4.12543C51.8312 4.12543 51.022 4.93468 51.022 5.94625C51.022 6.95781 51.8312 7.76707 52.8428 7.76707C53.8543 7.76707 54.6636 6.95781 54.6636 5.94625Z" fill="#18DBCD"/>
<path d="M53.5598 10.123C55.8762 9.748 57.4501 7.56622 57.0751 5.24983C56.7002 2.93344 54.5184 1.35961 52.202 1.73457C49.8856 2.10954 48.3118 4.29132 48.6867 6.60771C49.0617 8.9241 51.2434 10.4979 53.5598 10.123Z" stroke="#18DBCD" stroke-width="2" stroke-miterlimit="10"/>
<path d="M39.5408 24.5591H33.522V44.8915H39.5408V24.5591Z" fill="#18DBCD"/>
<path d="M36.5565 17.4275C37.9811 17.4275 39.1361 16.2727 39.1361 14.8481C39.1361 13.4234 37.9811 12.2686 36.5565 12.2686C35.1319 12.2686 33.9771 13.4234 33.9771 14.8481C33.9771 16.2727 35.1319 17.4275 36.5565 17.4275Z" stroke="#18DBCD" stroke-width="2" stroke-miterlimit="10"/>
<path d="M6.56356 15.9103C6.56356 14.4941 5.40028 13.3308 3.98408 13.3308C2.56789 13.3308 1.40454 14.4941 1.40454 15.9103C1.40454 17.3265 2.56789 18.4898 3.98408 18.4898C5.40028 18.4898 6.56356 17.3265 6.56356 15.9103Z" stroke="#18DBCD" stroke-width="2" stroke-miterlimit="10"/>
<path d="M5.90601 14.2411L16.578 7.71649" stroke="#18DBCD" stroke-width="2" stroke-miterlimit="10"/>
<path d="M24.2153 7.21063L33.9769 13.3812" stroke="#18DBCD" stroke-width="2" stroke-miterlimit="10"/>
<path d="M38.782 13.5835L48.9482 7.76703" stroke="#18DBCD" stroke-width="2" stroke-miterlimit="10"/>
</svg>
