<svg width="177" height="80" viewBox="0 0 177 80" fill="none" xmlns="http://www.w3.org/2000/svg">
<g clip-path="url(#clip0_46_465)">
<path d="M8.92308 79.4626L0 50.1344H10L13.8462 64.7985L18.3077 50.0576H26.7692L31.3077 64.8753L35.2308 50.1344H45.0769L36.1538 79.4626H27.3077L22.5385 64.3379L17.6923 79.4626H8.92308Z" fill="#333333"/>
<path d="M58.7693 79.9996C52.077 79.9996 46.6924 77.7732 42.6924 73.3202L49.3078 66.7175C52.077 69.5582 55.077 71.0169 58.3078 71.0169C59.7693 71.0169 60.9232 70.633 61.8462 69.9421C62.6924 69.2511 63.1539 68.3298 63.1539 67.1782V67.1014C63.1539 65.873 62.6155 64.9517 61.5385 64.2607C60.4616 63.5697 58.9232 63.2626 57.0001 63.2626H52.6155L51.077 57.8116L59.7693 49.9805H45.3078V41.5352H72.6155V48.9824L63.6155 56.6599C70.1539 58.1187 73.3847 61.6503 73.3847 67.2549V67.3317C73.3847 71.0937 72.0001 74.1647 69.3078 76.3912C66.5385 78.848 63.077 79.9996 58.7693 79.9996Z" fill="#FF0036"/>
<path d="M73.9231 79.2322V50.1343H84.1539V54.2034C86.6154 51.0556 89.5385 49.4434 92.9231 49.4434C96 49.4434 98.4616 50.4414 100.231 52.3608C102 54.2802 102.846 56.8906 102.846 60.1919V79.2322H92.6154V63.4165C92.6154 61.881 92.2308 60.6526 91.5385 59.808C90.7693 58.9635 89.7692 58.5029 88.5385 58.5029C87.2308 58.5029 86.2308 58.9635 85.3846 59.808C84.6154 60.6526 84.2308 61.881 84.2308 63.4165V79.1555H73.9231V79.2322Z" fill="#333333"/>
<path d="M113.769 79.8469C110.692 79.8469 108.231 78.9256 106.462 77.0062C104.692 75.0868 103.846 72.4764 103.846 69.1751V50.1348H114.077V65.8737C114.077 67.4092 114.462 68.6376 115.231 69.4822C116 70.3267 117 70.7874 118.231 70.7874C119.462 70.7874 120.538 70.3267 121.308 69.4822C122.077 68.6376 122.462 67.4092 122.462 65.8737V50.1348H132.692V79.2326H122.462V75.2403C120.077 78.3113 117.231 79.8469 113.769 79.8469Z" fill="#333333"/>
<path d="M145.846 79.8462C139.308 79.8462 136 76.6216 136 70.2493V58.3491H132.539V50.1341H136V42.7637H146.231V50.1341H153V58.3491H146.231V68.1763C146.231 70.0957 147.154 71.0938 149 71.0938C150.231 71.0938 151.539 70.7867 152.846 70.0957V78.0804C150.923 79.232 148.616 79.8462 145.846 79.8462Z" fill="#333333"/>
<path d="M165 79.8468C159.769 79.8468 155.154 78.3881 151.231 75.5474L155.077 69.3286C158.461 71.5551 161.769 72.6299 165.077 72.6299C166.769 72.6299 167.692 72.0925 167.692 71.0944V71.0176C167.692 70.4802 167.385 70.0963 166.692 69.7892C166 69.4821 164.769 69.0215 163 68.5608C161.308 68.1002 160 67.7163 158.846 67.2556C157.769 66.795 156.692 66.2576 155.692 65.5666C154.692 64.8756 153.923 63.9543 153.385 62.9562C152.846 61.8814 152.615 60.6529 152.615 59.271V59.1174C152.615 56.1232 153.692 53.7432 155.846 52.0541C158 50.365 160.846 49.5205 164.308 49.5205C168.769 49.5205 172.846 50.6721 176.308 52.8986L172.769 59.3478C169.538 57.5819 166.692 56.6606 164.154 56.6606C162.538 56.6606 161.769 57.1213 161.769 58.0426V58.1194C161.769 58.6568 162.077 59.0407 162.769 59.3478C163.461 59.6549 164.692 60.1155 166.461 60.6529C169.846 61.651 172.461 62.7259 174.231 64.1078C176 65.413 176.846 67.3324 176.846 69.9428V70.0195C176.846 73.1673 175.769 75.5474 173.615 77.2364C171.538 79.0023 168.615 79.8468 165 79.8468Z" fill="#333333"/>
<path d="M114.385 10.9021C114.385 10.9021 115.692 9.59693 116.769 8.7524C116.769 8.7524 119.231 5.68138 122.077 4.6833C122.077 4.6833 124.923 3.83877 126.154 4.6833C126.154 4.6833 126.385 3.22457 127.769 2.61036C127.769 2.61036 131.385 1.30518 132.077 0.767754C132.077 0.767754 132.154 2.91747 132.615 3.99232C132.615 3.99232 133 5.98848 130.615 7.21689C130.615 7.21689 131.923 9.82726 132 11.3628C132 11.3628 137.923 23.1094 140.385 25.3359C140.385 25.3359 146.077 31.7083 145.538 36.929C145.538 36.929 147.154 33.7812 152.077 30.9405C152.077 30.9405 158.154 27.7927 156.462 18.0422C156.462 18.0422 155.231 11.9002 149.231 13.2821C149.231 13.2821 145.077 14.357 147.923 18.3493C147.923 18.3493 148.077 19.2706 147.615 19.0403C147.615 19.0403 145.462 18.4261 144.846 17.5816C144.846 17.5816 144.385 17.5048 144.923 18.5029C144.923 18.5029 132.846 11.5931 143.539 2.68714C143.539 2.68714 143.385 1.84261 141.692 2.53359C141.692 2.53359 154.846 -5.22073 166.077 5.98848C166.077 5.98848 173.769 15.8157 168.923 27.3321C168.923 27.3321 166.692 32.3992 159.923 35.8541C159.923 35.8541 151.615 40.3071 151.154 40.6142L151.846 40.7677C151.846 40.7677 149 41.382 148.692 42.0729L148.769 42.5336C148.769 42.5336 146.692 42.9175 144.308 44.9136C144.308 44.9136 141.923 47.9846 139.154 48.3685C139.154 48.3685 139.385 48.5221 139.615 47.7543C139.615 47.7543 137.692 47.2937 137.385 49.5202C137.385 49.5202 137.539 50.5182 133.154 50.1344C133.154 50.1344 125.154 49.8273 122.539 50.6718L122.846 50.0576C122.846 50.0576 121.923 49.904 121.615 50.2879C121.615 50.2879 121.615 48.5988 125 48.9059C125 48.9059 121.846 46.9098 121.846 43.8388C121.846 43.8388 121.231 40.691 123.308 37.5432C123.308 37.5432 126.462 32.0154 124.231 31.2476C124.231 31.2476 123.769 30.7869 123.308 31.7083C123.308 31.7083 122.539 32.3225 120.385 29.8656C120.385 29.8656 117.231 26.7178 117.154 30.4031C117.154 30.4031 117.077 31.4011 116.231 30.096C116.231 30.096 115.769 30.2495 115.923 30.7869C115.923 30.7869 114.154 30.096 114.923 28.4069C114.923 28.4069 115.231 25.2591 118.923 25.5662C118.923 25.5662 118.154 21.4971 119.462 19.9616C119.462 19.9616 118.615 19.7313 118.539 20.4223C118.539 20.4223 118.538 18.119 120.923 16.3532C120.923 16.3532 120.923 15.2783 119.615 15.739C119.615 15.6622 113.692 15.048 114.385 10.9021Z" fill="#FF0036"/>
</g>
<defs>
<clipPath id="clip0_46_465">
<rect width="176.923" height="80" fill="white"/>
</clipPath>
</defs>
</svg>
