<?xml version="1.0" encoding="UTF-8"?> <svg xmlns="http://www.w3.org/2000/svg" width="66" height="90" viewBox="0 0 66 90" fill="none"><path d="M2.90369 87.0964V2.90284H41.1367L41.2054 21.6494C41.2073 22.0687 41.3907 22.4659 41.7082 22.742C41.9733 22.9707 42.3109 23.0939 42.657 23.0939C42.7257 23.0939 42.7931 23.09 42.8618 23.0796L62.9056 20.2198V87.0969L2.90369 87.0964ZM60.9433 17.5683L44.1029 19.9705L44.0466 4.42728L60.9433 17.5683ZM43.4759 0.306524C43.4143 0.257272 43.3359 0.230055 43.2672 0.193765C43.2108 0.162659 43.1622 0.128313 43.1039 0.104982C42.9367 0.0401789 42.7643 0 42.5829 0H1.45161C0.649344 0 0 0.649344 0 1.45161V88.5484C0 89.3507 0.649344 90 1.45161 90H64.3571C65.1593 90 65.8087 89.3507 65.8087 88.5484V18.3865C65.8087 17.9381 65.6019 17.5156 65.2481 17.2415L43.4759 0.306524Z" fill="#101010"></path><path d="M21.0844 43.7803C23.0511 43.7803 24.6518 42.1796 24.6518 40.2128C24.6518 38.246 23.0512 36.6433 21.0844 36.6433C19.1156 36.6433 17.5149 38.2453 17.5149 40.2128C17.5149 42.1803 19.1155 43.7803 21.0844 43.7803Z" fill="#FF0000"></path><path d="M45.276 43.7803C47.2427 43.7803 48.8435 42.1796 48.8435 40.2128C48.8435 38.246 47.2428 36.6433 45.276 36.6433C43.3053 36.6433 41.7034 38.2453 41.7034 40.2128C41.7034 42.1803 43.3092 43.7803 45.276 43.7803Z" fill="#FF0000"></path><path d="M33.1804 53.1252C22.8759 53.1252 14.4902 61.5083 14.4902 71.8154C14.4902 72.6177 15.1396 73.267 15.9418 73.267C16.7441 73.267 17.3935 72.6177 17.3935 71.8154C17.3935 63.1108 24.474 56.0291 33.1797 56.0291C41.8823 56.0291 48.9621 63.111 48.9621 71.8154C48.9621 72.6177 49.6115 73.267 50.4138 73.267C51.216 73.267 51.8654 72.6177 51.8654 71.8154C51.8654 61.5089 43.4823 53.1252 33.1802 53.1252H33.1804Z" fill="#FF0000"></path></svg> 