<svg width="100" height="103" viewBox="0 0 100 103" fill="none" xmlns="http://www.w3.org/2000/svg">
<path d="M14.0394 55.7676H80.1509" stroke="#18DBCD" stroke-width="2" stroke-miterlimit="10" stroke-linecap="round" stroke-linejoin="round"/>
<path d="M47.0951 22.7114V55.7671" stroke="#18DBCD" stroke-width="2" stroke-miterlimit="10" stroke-linecap="round" stroke-linejoin="round"/>
<path d="M14.0398 55.7671C14.0398 37.5409 28.8694 22.7114 47.0956 22.7114C65.3218 22.7114 80.1513 37.6238 80.1513 55.85" stroke="#18DBCD" stroke-width="2" stroke-miterlimit="10" stroke-linecap="round" stroke-linejoin="round"/>
<path d="M47.0953 22.7114C47.0953 22.7114 29.3661 29.7534 29.3661 55.7671" stroke="#18DBCD" stroke-width="2" stroke-miterlimit="10" stroke-linecap="round" stroke-linejoin="round"/>
<path d="M47.0951 22.7114C47.0951 22.7114 64.8241 29.7534 64.8241 55.7671" stroke="#18DBCD" stroke-width="2" stroke-miterlimit="10" stroke-linecap="round" stroke-linejoin="round"/>
<path d="M47.0951 41.6004C28.8689 41.6004 24.1467 31.9902 24.1467 31.9902" stroke="#18DBCD" stroke-width="2" stroke-miterlimit="10" stroke-linecap="round" stroke-linejoin="round"/>
<path d="M70.0435 31.9902C70.0435 31.9902 65.3213 41.6004 47.0951 41.6004" stroke="#18DBCD" stroke-width="2" stroke-miterlimit="10" stroke-linecap="round" stroke-linejoin="round"/>
<path d="M47.0951 88.8233V55.7676" stroke="#18DBCD" stroke-width="2" stroke-miterlimit="10" stroke-linecap="round" stroke-linejoin="round"/>
<path d="M80.1509 55.7676C80.1509 73.9938 65.3215 88.8233 47.0953 88.8233C28.8691 88.8233 14.0394 73.9938 14.0394 55.7676" stroke="#18DBCD" stroke-width="2" stroke-miterlimit="10" stroke-linecap="round" stroke-linejoin="round"/>
<path d="M47.0951 88.8233C47.0951 88.8233 64.8241 81.7814 64.8241 55.7676" stroke="#18DBCD" stroke-width="2" stroke-miterlimit="10" stroke-linecap="round" stroke-linejoin="round"/>
<path d="M47.0953 88.8233C47.0953 88.8233 29.3661 81.7814 29.3661 55.7676" stroke="#18DBCD" stroke-width="2" stroke-miterlimit="10" stroke-linecap="round" stroke-linejoin="round"/>
<path d="M70.0435 79.5448C70.0435 79.5448 65.3213 69.9346 47.0951 69.9346" stroke="#18DBCD" stroke-width="2" stroke-miterlimit="10" stroke-linecap="round" stroke-linejoin="round"/>
<path d="M24.1467 79.5448C24.1467 79.5448 28.8689 69.9346 47.0951 69.9346" stroke="#18DBCD" stroke-width="2" stroke-miterlimit="10" stroke-linecap="round" stroke-linejoin="round"/>
<path d="M39.9709 4.73389C36.8227 11.8587 29.2837 12.1901 20.7505 17.6579C14.04 21.9659 8.90351 28.428 5.42396 35.6356C-0.0439022 47.1513 -0.458053 60.9866 4.26419 72.8336" stroke="#18DBCD" stroke-width="2" stroke-miterlimit="10" stroke-linecap="round"/>
<path d="M34.0059 3.82262L41.7933 2L43.6161 9.78756" stroke="#18DBCD" stroke-width="2" stroke-miterlimit="10" stroke-linecap="round"/>
<path d="M6.41772 87.4146C14.2053 86.5862 18.1819 92.9653 27.295 97.6047C34.3369 101.25 42.6216 102.493 50.5749 101.83C63.3332 100.836 75.5117 94.2909 83.2992 84.1836" stroke="#18DBCD" stroke-width="2" stroke-miterlimit="10" stroke-linecap="round"/>
<path d="M8.57195 93.0484L3.104 87.2491L8.98618 81.7812" stroke="#18DBCD" stroke-width="2" stroke-miterlimit="10" stroke-linecap="round"/>
<path d="M94.8148 75.1532C90.2582 68.8569 93.7378 62.1464 93.2408 52.0391C92.8265 44.0858 89.844 36.3811 85.2874 29.7534C78.0798 19.2319 66.3156 11.9414 53.6401 10.2017" stroke="#18DBCD" stroke-width="2" stroke-miterlimit="10" stroke-linecap="round"/>
<path d="M98.6258 70.5137L96.306 78.1356L88.6842 75.733" stroke="#18DBCD" stroke-width="2" stroke-miterlimit="10" stroke-linecap="round"/>
</svg>
