<svg width="54" height="41" viewBox="0 0 54 41" fill="none" xmlns="http://www.w3.org/2000/svg">
<path d="M47.7795 0H6.22009C2.79054 0 0 2.82733 0 6.30208V34.6979C0 38.1727 2.79054 41 6.22009 41H47.7795C51.2095 41 54 38.1727 54 34.6979V6.30208C54 2.82733 51.2095 0 47.7795 0ZM33.0248 20.5012L51.5399 4.32897C51.8435 4.92053 52.018 5.59089 52.018 6.30251V34.6983C52.018 35.4104 51.8431 36.0811 51.5391 36.6731L33.0248 20.5012ZM47.7795 2.00774C48.6975 2.00774 49.5459 2.30831 50.2405 2.81274L26.9998 23.113L3.75872 2.81274C4.45327 2.30831 5.3017 2.00774 6.21968 2.00774H47.7795ZM2.46014 36.6731C2.15607 36.0811 1.9812 35.4104 1.9812 34.6983V6.30251C1.9812 5.59089 2.15565 4.92094 2.45931 4.32937L20.9743 20.5017L2.46014 36.6731ZM6.22009 38.9923C5.30253 38.9923 4.4545 38.6921 3.75995 38.1881L22.4918 21.8265L26.3526 25.1987C26.5385 25.3613 26.769 25.4422 26.9998 25.4422C27.2302 25.4422 27.4606 25.3613 27.6466 25.1987L31.5074 21.8265L50.2392 38.1881C49.5447 38.6921 48.6967 38.9923 47.7791 38.9923H6.22009Z" fill="#18DBCD"/>
</svg>
