<svg width="14" height="15" viewBox="0 0 14 15" fill="none" xmlns="http://www.w3.org/2000/svg">
<path d="M3.125 14.8574V5.51367H0.21875V14.8574H3.125ZM1.65625 4.26367C2.59375 4.26367 3.34375 3.48242 3.34375 2.54492C3.34375 1.63867 2.59375 0.888672 1.65625 0.888672C0.75 0.888672 0 1.63867 0 2.54492C0 3.48242 0.75 4.26367 1.65625 4.26367ZM13.9688 14.8574H14V9.73242C14 7.23242 13.4375 5.29492 10.5 5.29492C9.09375 5.29492 8.15625 6.07617 7.75 6.79492H7.71875V5.51367H4.9375V14.8574H7.84375V10.2324C7.84375 9.01367 8.0625 7.85742 9.5625 7.85742C11.0625 7.85742 11.0938 9.23242 11.0938 10.3262V14.8574H13.9688Z" fill="white"/>
</svg>
