<svg width="16" height="14" viewBox="0 0 16 14" fill="none" xmlns="http://www.w3.org/2000/svg">
<path d="M14.3438 3.60767C14.9688 3.13892 15.5312 2.57642 15.9688 1.92017C15.4062 2.17017 14.75 2.35767 14.0938 2.42017C14.7812 2.01392 15.2812 1.38892 15.5312 0.607666C14.9062 0.982666 14.1875 1.26392 13.4688 1.42017C12.8438 0.763916 12 0.388916 11.0625 0.388916C9.25 0.388916 7.78125 1.85767 7.78125 3.67017C7.78125 3.92017 7.8125 4.17017 7.875 4.42017C5.15625 4.26392 2.71875 2.95142 1.09375 0.982666C0.8125 1.45142 0.65625 2.01392 0.65625 2.63892C0.65625 3.76392 1.21875 4.76392 2.125 5.35767C1.59375 5.32642 1.0625 5.20142 0.625 4.95142V4.98267C0.625 6.57642 1.75 7.88892 3.25 8.20142C3 8.26392 2.6875 8.32642 2.40625 8.32642C2.1875 8.32642 2 8.29517 1.78125 8.26392C2.1875 9.57642 3.40625 10.5139 4.84375 10.5452C3.71875 11.4202 2.3125 11.9514 0.78125 11.9514C0.5 11.9514 0.25 11.9202 0 11.8889C1.4375 12.8264 3.15625 13.3577 5.03125 13.3577C11.0625 13.3577 14.3438 8.38892 14.3438 4.04517C14.3438 3.88892 14.3438 3.76392 14.3438 3.60767Z" fill="white"/>
</svg>
