<svg width="30" height="30" viewBox="0 0 30 30" fill="none" xmlns="http://www.w3.org/2000/svg">
<path d="M16.5 5.38095H12.9286C12.2738 5.38095 11.7381 5.91667 11.7381 6.57143C11.7381 7.22619 12.2143 7.70238 12.869 7.7619H16.5C17.1548 7.7619 17.6905 7.22619 17.6905 6.57143C17.6905 5.91667 17.1548 5.38095 16.5 5.38095ZM18.881 13.119C19.5357 13.119 20.0714 13.6548 20.0714 14.3095C20.0714 14.9643 19.5357 15.5 18.881 15.5H10.5476C9.89286 15.5 9.35714 14.9643 9.35714 14.3095C9.35714 13.6548 9.89286 13.119 10.5476 13.119H18.881ZM18.881 17.881C19.5357 17.881 20.0714 18.4167 20.0714 19.0714C20.0714 19.7262 19.5357 20.2619 18.881 20.2619H10.5476C9.89286 20.2619 9.35714 19.7262 9.35714 19.0714C9.35714 18.4167 9.89286 17.881 10.5476 17.881H18.881ZM16.5 10.1429H12.9286C11.381 10.1429 10.0714 9.13095 9.53571 7.7619H7.57143C6.91667 7.7619 6.44048 8.2381 6.38095 8.89286V24.4286C6.38095 25.0833 6.85714 25.5595 7.5119 25.619H21.8571C22.5119 25.619 22.9881 25.1429 23.0476 24.4881V8.95238C23.0476 8.29762 22.5119 7.7619 21.8571 7.7619H19.8929C19.3571 9.13095 18.0476 10.1429 16.5 10.1429ZM16.5 3C18.0476 3 19.3571 4.0119 19.8929 5.38095H21.8571C23.8214 5.38095 25.4286 6.9881 25.4286 8.95238V24.4286C25.4286 26.3929 23.8214 28 21.8571 28H7.57143C5.60714 28 4 26.3929 4 24.4286V8.95238C4 6.9881 5.60714 5.38095 7.57143 5.38095H9.53571C10.0119 4.0119 11.3214 3 12.9286 3H16.5Z" fill="#858BA0"/>
</svg>
