<svg width="30" height="30" viewBox="0 0 30 30" fill="none" xmlns="http://www.w3.org/2000/svg">
<path d="M4.36832 9.31767L15.0014 14.6985L25.6345 9.31767L15.0014 4.12432L4.36832 9.31767ZM5.8596 17.6673L3.61987 16.5537C2.87423 16.1815 2.5 15.6247 2.5 14.8832C2.5 14.1417 2.87423 13.5848 3.61987 13.2127L5.8596 12.099L3.61987 10.9854C2.68571 10.6132 2.31429 9.50235 2.68571 8.57337C2.87141 8.20121 3.24564 7.83186 3.43135 7.83186L14.0701 2.63851C14.63 2.45383 15.1899 2.45383 15.7499 2.63851L26.3829 7.83186C27.3143 8.20401 27.6885 9.31487 27.1286 10.2439C26.9429 10.616 26.5687 10.9854 26.3829 10.9854L24.1432 12.099L26.1944 13.028C27.1258 13.4002 27.5 13.9542 27.5 14.8832C27.5 15.6247 27.1258 16.3662 26.1944 16.7383L24.1432 17.6673L26.1944 18.5963C27.1258 18.9685 27.5 19.5225 27.5 20.4515C27.5 21.193 27.1258 21.9345 26.1944 22.3066L15.9328 27.3153C15.747 27.5 15.3728 27.5 14.9986 27.5C14.6244 27.5 14.4387 27.5 14.0644 27.3153L3.43416 22.1192C2.68852 21.747 2.5 21.1902 2.5 20.4487C2.5 19.7072 2.87423 19.1503 3.61987 18.7782L5.8596 17.6673ZM7.91362 18.781L4.36832 20.4515L15.0014 25.8295L25.6345 20.6362L22.0892 18.9657L15.9356 21.9345C15.7499 22.1192 15.3756 22.1192 15.0014 22.1192C14.6272 22.1192 14.4415 22.1192 14.0672 21.9345L7.91362 18.781ZM22.092 13.2155L15.9356 16.1815C15.3756 16.3662 14.8157 16.3662 14.2558 16.1815L7.91362 13.2155L4.36832 14.886L15.0014 20.264L25.6345 14.8832L22.092 13.2155Z" fill="#858BA0" stroke="#858BA0" stroke-width="0.3"/>
</svg>
