<svg width="30" height="30" viewBox="0 0 30 30" fill="none" xmlns="http://www.w3.org/2000/svg">
<path d="M15.8333 4.88095H13.1548C12.5 4.88095 11.9643 5.41667 11.9643 6.07143C11.9643 6.72619 12.4405 7.20238 13.0952 7.2619H15.8333C16.4881 7.2619 17.0238 6.72619 17.0238 6.07143C17.0238 5.41667 16.4881 4.88095 15.8333 4.88095ZM15.6548 12.619C16.3095 12.619 16.8452 13.1548 16.8452 13.8095C16.8452 14.4643 16.3095 15 15.6548 15H10.2976C9.64286 15 9.10714 14.4643 9.10714 13.8095C9.10714 13.1548 9.64286 12.619 10.2976 12.619H15.6548ZM12.6786 17.381C13.3333 17.381 13.869 17.9167 13.869 18.5714C13.869 19.2262 13.3333 19.7619 12.6786 19.7619H10.2976C9.64286 19.7619 9.10714 19.2262 9.10714 18.5714C9.10714 17.9167 9.64286 17.381 10.2976 17.381H12.6786ZM26.6667 19.5238C27.0833 20 27.0833 20.6548 26.6667 21.131L26.6071 21.1905L20.2381 27.1429C19.8214 27.5595 19.1667 27.5595 18.6905 27.2024L18.631 27.1429L15.4762 24.1667C15 23.6905 15 22.9762 15.4167 22.5C15.8333 22.0238 16.5476 22.0238 17.0238 22.381L17.0833 22.4405L19.4643 24.6429L25 19.4643C25.4167 19.0476 26.1905 19.0476 26.6667 19.5238ZM22.7976 8.45238C22.7976 7.79762 22.2619 7.2619 21.6071 7.2619H19.6429C19.1667 8.63095 17.8571 9.64286 16.25 9.64286H12.6786C11.131 9.64286 9.82143 8.63095 9.28571 7.2619H7.32143C6.66667 7.2619 6.19048 7.7381 6.13095 8.39286V23.9286C6.13095 24.5833 6.60714 25.0595 7.2619 25.119H11.4881C12.1429 25.119 12.6786 25.6548 12.6786 26.3095C12.6786 26.9643 12.2024 27.4405 11.5476 27.5H7.32143C5.35714 27.5 3.75 25.8929 3.75 23.9286V8.45238C3.75 6.4881 5.35714 4.88095 7.32143 4.88095H9.28571C9.76191 3.5119 11.0714 2.5 12.6786 2.5H16.25C17.7976 2.5 19.1071 3.5119 19.6429 4.88095H21.6071C23.5714 4.88095 25.1786 6.4881 25.1786 8.45238V14.4048C25.1786 15.0595 24.6429 15.5952 23.9881 15.5952C23.3333 15.5952 22.8571 15.119 22.7976 14.4643V8.45238Z" fill="#858BA0"/>
</svg>
