<svg width="50" height="50" viewBox="0 0 50 50" fill="none" xmlns="http://www.w3.org/2000/svg">
<path d="M1.29557 13.0195C1.29557 13.0195 2.36866 11.9464 3.29868 11.1595C3.29868 11.1595 5.37332 8.58408 7.80567 7.65406C7.80567 7.65406 10.1665 6.93867 11.2396 7.65406C11.2396 7.65406 11.4542 6.36635 12.5988 5.86557C12.5988 5.86557 15.675 4.79248 16.1758 4.2917C16.1758 4.2917 16.2473 6.08019 16.6766 7.08175C16.6766 7.08175 17.0343 8.7987 15.0312 9.80025C15.0312 9.80025 16.1758 12.018 16.1758 13.3057C16.1758 13.3057 21.1836 23.2497 23.2582 25.1097C23.2582 25.1097 28.0514 30.5467 27.6221 34.9106C27.6221 34.9106 28.9814 32.1921 33.1307 29.8313C33.1307 29.8313 38.2815 27.1128 36.8507 18.9573C36.8507 18.9573 35.7776 13.7349 30.7699 14.9511C30.7699 14.9511 27.2644 15.8811 29.6252 19.2435C29.6252 19.2435 29.7683 20.0304 29.4106 19.8158C29.4106 19.8158 27.5506 19.2435 27.0498 18.5996C27.0498 18.5996 26.6921 18.5996 27.1213 19.3866C27.1213 19.3866 16.8912 13.5203 25.9767 6.00865C25.9767 6.00865 25.8336 5.29326 24.4028 5.93711C24.4028 5.93711 35.563 -0.572988 45.0062 8.87023C45.0062 8.87023 51.5163 17.1688 47.3671 26.9697C47.3671 26.9697 45.507 31.2621 39.7839 34.1952C39.7839 34.1952 32.773 37.9868 32.3437 38.273L32.9876 38.3445C32.9876 38.3445 30.6268 38.8453 30.3406 39.4176L30.4122 39.7753C30.4122 39.7753 28.6952 40.133 26.6206 41.7784C26.6206 41.7784 24.6175 44.3539 22.2567 44.7116C22.2567 44.7116 22.3997 44.7831 22.6144 44.2108C22.6144 44.2108 20.9689 43.8531 20.6828 45.7131C20.6828 45.7131 20.8259 46.5716 17.1058 46.2139C17.1058 46.2139 10.3811 45.9277 8.16337 46.7147L8.44952 46.2139C8.44952 46.2139 7.66259 46.0708 7.44797 46.4285C7.44797 46.4285 7.44797 44.9977 10.3096 45.2123C10.3096 45.2123 7.66259 43.4954 7.66259 40.92C7.66259 40.92 7.16181 38.273 8.87876 35.5545C8.87876 35.5545 11.5257 30.8329 9.6657 30.189C9.6657 30.189 9.308 29.8313 8.87876 30.5467C8.87876 30.5467 8.23491 31.0475 6.37488 28.9729C6.37488 28.9729 3.72791 26.3259 3.65637 29.4021C3.65637 29.4021 3.58483 30.2606 2.86944 29.1875C2.86944 29.1875 2.4402 29.259 2.65482 29.7598C2.65482 29.7598 1.15249 29.1159 1.79634 27.6851C1.79634 27.6851 2.01096 25.0382 5.23024 25.2528C5.23024 25.2528 4.58639 21.7474 5.65948 20.4596C5.65948 20.4596 4.94409 20.245 4.87255 20.8889C4.87255 20.8889 4.87255 18.9573 6.87565 17.455C6.87565 17.455 6.87565 16.525 5.73102 16.9542C5.73102 17.0257 0.723251 16.525 1.29557 13.0195Z" fill="#FF0036"/>
</svg>
