<?xml version="1.0" encoding="utf-8"?>
<!-- Generator: Adobe Illustrator 25.3.0, SVG Export Plug-In . SVG Version: 6.00 Build 0)  -->
<svg version="1.1" id="Layer_1" xmlns="http://www.w3.org/2000/svg" xmlns:xlink="http://www.w3.org/1999/xlink" x="0px" y="0px"
	 width="10.8px" height="14.5px" viewBox="0 0 10.8 14.5" style="enable-background:new 0 0 10.8 14.5;" xml:space="preserve">
<style type="text/css">
	.st0{fill:#FFFFFF;}
</style>
<g>
	<path class="st0" d="M2.8,14.5H1.5C0.7,14.5,0,13.8,0,13V1.5C0,0.7,0.7,0,1.5,0h1.3c0.8,0,1.5,0.7,1.5,1.5V13
		C4.3,13.8,3.6,14.5,2.8,14.5z"/>
	<path class="st0" d="M9.3,14.5H8c-0.8,0-1.5-0.7-1.5-1.5V1.5C6.5,0.7,7.2,0,8,0h1.3c0.8,0,1.5,0.7,1.5,1.5V13
		C10.8,13.8,10.2,14.5,9.3,14.5z"/>
</g>
</svg>
