<svg width="51" height="53" viewBox="0 0 51 53" fill="none" xmlns="http://www.w3.org/2000/svg">
<path d="M7.62061 28.8835H40.6762" stroke="#18DBCD" stroke-width="2" stroke-miterlimit="10" stroke-linecap="round" stroke-linejoin="round"/>
<path d="M24.1484 12.3557V28.8835" stroke="#18DBCD" stroke-width="2" stroke-miterlimit="10" stroke-linecap="round" stroke-linejoin="round"/>
<path d="M7.62061 28.8835C7.62061 19.7704 15.0354 12.3557 24.1485 12.3557C33.2616 12.3557 40.6762 19.8119 40.6762 28.9249" stroke="#18DBCD" stroke-width="2" stroke-miterlimit="10" stroke-linecap="round" stroke-linejoin="round"/>
<path d="M24.1483 12.3557C24.1483 12.3557 15.2837 15.8767 15.2837 28.8835" stroke="#18DBCD" stroke-width="2" stroke-miterlimit="10" stroke-linecap="round" stroke-linejoin="round"/>
<path d="M24.1484 12.3557C24.1484 12.3557 33.0129 15.8767 33.0129 28.8835" stroke="#18DBCD" stroke-width="2" stroke-miterlimit="10" stroke-linecap="round" stroke-linejoin="round"/>
<path d="M24.1485 21.8002C15.0354 21.8002 12.6743 16.9951 12.6743 16.9951" stroke="#18DBCD" stroke-width="2" stroke-miterlimit="10" stroke-linecap="round" stroke-linejoin="round"/>
<path d="M35.6226 16.9951C35.6226 16.9951 33.2615 21.8002 24.1484 21.8002" stroke="#18DBCD" stroke-width="2" stroke-miterlimit="10" stroke-linecap="round" stroke-linejoin="round"/>
<path d="M24.1484 45.4114V28.8835" stroke="#18DBCD" stroke-width="2" stroke-miterlimit="10" stroke-linecap="round" stroke-linejoin="round"/>
<path d="M40.6762 28.8835C40.6762 37.9966 33.2616 45.4114 24.1485 45.4114C15.0354 45.4114 7.62061 37.9966 7.62061 28.8835" stroke="#18DBCD" stroke-width="2" stroke-miterlimit="10" stroke-linecap="round" stroke-linejoin="round"/>
<path d="M24.1484 45.4114C24.1484 45.4114 33.0129 41.8904 33.0129 28.8835" stroke="#18DBCD" stroke-width="2" stroke-miterlimit="10" stroke-linecap="round" stroke-linejoin="round"/>
<path d="M24.1483 45.4114C24.1483 45.4114 15.2837 41.8904 15.2837 28.8835" stroke="#18DBCD" stroke-width="2" stroke-miterlimit="10" stroke-linecap="round" stroke-linejoin="round"/>
<path d="M35.6226 40.7721C35.6226 40.7721 33.2615 35.967 24.1484 35.967" stroke="#18DBCD" stroke-width="2" stroke-miterlimit="10" stroke-linecap="round" stroke-linejoin="round"/>
<path d="M12.6743 40.7721C12.6743 40.7721 15.0354 35.967 24.1485 35.967" stroke="#18DBCD" stroke-width="2" stroke-miterlimit="10" stroke-linecap="round" stroke-linejoin="round"/>
<path d="M20.586 3.36694C19.0119 6.92933 15.2424 7.09502 10.9758 9.82895C7.62056 11.9829 5.05233 15.214 3.31256 18.8178C0.578636 24.5756 0.371561 31.4932 2.73268 37.4167" stroke="#18DBCD" stroke-width="2" stroke-miterlimit="10" stroke-linecap="round"/>
<path d="M17.6035 2.91131L21.4972 2L22.4086 5.89377" stroke="#18DBCD" stroke-width="2" stroke-miterlimit="10" stroke-linecap="round"/>
<path d="M3.80957 44.7071C7.70334 44.2928 9.69163 47.4824 14.2482 49.8021C17.7691 51.6247 21.9115 52.2461 25.8881 51.9147C32.2672 51.4176 38.3564 48.1452 42.2502 43.0916" stroke="#18DBCD" stroke-width="2" stroke-miterlimit="10" stroke-linecap="round"/>
<path d="M4.8868 47.5239L2.15283 44.6243L5.09391 41.8904" stroke="#18DBCD" stroke-width="2" stroke-miterlimit="10" stroke-linecap="round"/>
<path d="M48.0082 38.5765C45.7299 35.4284 47.4697 32.0731 47.2212 27.0195C47.014 23.0429 45.5228 19.1905 43.2445 15.8767C39.6407 10.6159 33.7586 6.97071 27.4209 6.10083" stroke="#18DBCD" stroke-width="2" stroke-miterlimit="10" stroke-linecap="round"/>
<path d="M49.9136 36.2568L48.7538 40.0678L44.9429 38.8665" stroke="#18DBCD" stroke-width="2" stroke-miterlimit="10" stroke-linecap="round"/>
</svg>
